<?xml version="1.0" encoding="utf-8"?>
<!-- Generator: Adobe Illustrator 16.0.4, SVG Export Plug-In . SVG Version: 6.00 Build 0)  -->
<!DOCTYPE svg PUBLIC "-//W3C//DTD SVG 1.1//EN" "http://www.w3.org/Graphics/SVG/1.1/DTD/svg11.dtd">
<svg version="1.1" id="Layer_1" xmlns="http://www.w3.org/2000/svg" xmlns:xlink="http://www.w3.org/1999/xlink" x="0px" y="0px"
	 width="301.9px" height="201.8px" viewBox="0 0 301.9 201.8" enable-background="new 0 0 301.9 201.8" xml:space="preserve">
<g>
	<path fill="#332F31" stroke="#332F31" stroke-miterlimit="10" d="M0.5,201.3c0-66.9,0-133.8,0-200.8c100.3,0,200.6,0,300.9,0
		c0,66.9,0,133.8,0,200.8C201.1,201.3,100.8,201.3,0.5,201.3 M151.1,3.4c-48.7,0-97.5,0-146.2,0c-1.5,0-1.3-0.2-1.3,1.3
		c0,64.2,0,128.3,0,192.5c0,0.3,0,0.5,0,0.8c0,0.1,0,0.2,0,0.2c0,0.1,0.1,0.2,0.2,0.2c0.4,0,0.8,0,1.2,0c97.4,0,194.8,0,292.2,0
		c0.3,0,0.6,0,0.9,0c0.1,0,0.2,0,0.3,0c0.1,0,0.2-0.1,0.3-0.3c0-0.4,0-0.7,0-1.1c0-64.1,0-128.2,0-192.4c0-0.3,0-0.5,0-0.8
		c0-0.1,0-0.2,0-0.3c0-0.1-0.1-0.2-0.2-0.2c-0.4,0-0.8,0-1.1,0C248.5,3.4,199.8,3.4,151.1,3.4"/>
	<path fill="#332F31" d="M150.4,26.3c5.6,0.1,11.3,2.2,16.2,6.6c0.6,0.5,1.1,1.1,1.6,1.7c0.1,0.1,0.2,0.3,0.3,0.4
		c0.1,0.1,0.1,0.2,0,0.3c-0.1,0.1-0.1,0.2-0.2,0.3c-1.6,1.8-3.3,3.6-4.9,5.4c-0.1,0.1-0.2,0.2-0.2,0.2c-0.1,0.1-0.3,0.1-0.4,0
		c-0.2-0.2-0.3-0.4-0.5-0.5c-1-1.1-2-2.1-3.2-2.9c-2.2-1.6-4.6-2.6-7.3-3c-0.2,0-0.4,0-0.6-0.1c-0.9,0-1.7-0.1-2.6,0
		c-1.7,0.1-3.4,0.5-5,1.1c-2.1,0.9-4,2.1-5.6,3.7c-1.7,1.7-3,3.8-3.8,6.1c-0.5,1.3-0.8,2.6-0.9,4c-0.1,1.2-0.1,2.4,0.1,3.6
		c0.2,1.6,0.6,3.1,1.3,4.6c1.3,2.9,3.3,5.2,5.9,7c0.2,0.2,0.5,0.3,0.7,0.5c0.1,0.1,0.1,0.3,0.1,0.4c-0.1,0.1-0.2,0.3-0.3,0.4
		c-1.6,1.8-3.2,3.6-4.8,5.3c-0.1,0.1-0.2,0.2-0.3,0.3c-0.1,0.1-0.2,0.1-0.3,0c-0.1-0.1-0.3-0.2-0.4-0.3c-1.8-1.3-3.4-2.8-4.8-4.6
		c-2.5-3.1-4.2-6.6-5-10.5c-0.2-1-0.3-1.9-0.4-2.9c-0.1-1.2-0.2-2.3-0.1-3.5c0.3-5.7,2.3-10.8,6-15.2c3.5-4.1,8-6.7,13.2-7.9
		C146,26.5,147.4,26.3,150.4,26.3"/>
	<path fill="#332F31" d="M159.3,92.4c0.1,0.1,0.3,0.2,0.5,0.3c1.9,1.4,3.7,2.8,5.6,4.2c0.1,0.1,0.2,0.2,0.3,0.3
		c0.2,0.1,0.2,0.3,0.1,0.4c0,0.1-0.1,0.1-0.1,0.2c-1.9,2.3-4.2,4.1-7.1,5.1c-0.9,0.3-1.9,0.6-2.8,0.8c-0.5,0.1-1.1,0.2-1.6,0.2
		c-4.1,0-8.1,0-12.2,0c-0.4,0-0.8,0-1.1,0c-0.3,0-0.4,0.1-0.4,0.4c0,0.2,0,0.4,0,0.7c0,0.9,0,1.8,0,2.8c0,3.8,0,7.5,0,11.3
		c0,0.4,0,0.8,0,1.2c0,0.1,0,0.2-0.1,0.3c0,0.1-0.1,0.2-0.2,0.2c-0.2,0-0.4,0-0.6,0c-1.1,0-2.2,0-3.3,0c-1.1,0-2.2,0-3.3,0
		c-0.2,0-0.4,0-0.6,0c-0.1,0-0.2-0.1-0.2-0.2c0-0.1,0-0.2,0-0.3c0-0.3,0-0.7,0-1c0-12.3,0-24.5,0-36.8c0-0.8,0-1.5,0-2.3
		c0-0.2,0-0.3,0.1-0.5c0-0.1,0.1-0.1,0.2-0.2c0.1,0,0.2-0.1,0.3-0.1c0.4,0,0.8,0,1.1,0c1.8,0,3.6,0,5.5,0c0.2,0,0.4,0,0.7,0
		c0.2,0,0.4,0.2,0.4,0.4c0,0.3,0,0.6,0,0.9c0,4.3,0,8.6,0,12.9c0,0.4,0,0.7,0,1.1c0,0.1,0,0.3,0.1,0.4c0,0.1,0.1,0.2,0.2,0.2
		c0.1,0,0.2,0,0.3,0c0.3,0,0.5,0,0.8,0c3.8,0,7.7,0,11.5,0c0.6,0,1.2,0,1.8-0.1c0.6-0.1,1.2-0.3,1.8-0.6c0.8-0.4,1.5-1,2.1-1.7
		C158.9,92.8,159.1,92.5,159.3,92.4"/>
	<path fill="#332F31" d="M70.1,102.4c-1,0-2.1,0-3.1,0c-0.3,0-0.5,0-0.8-0.1c-0.1,0-0.2-0.1-0.3-0.2c-0.1-0.2-0.2-0.3-0.2-0.5
		c-1.3-3.1-2.6-6.1-3.9-9.2c-0.1-0.2-0.2-0.5-0.4-0.7c0,0-0.2,0-0.2,0c0,0-0.1,0.1-0.1,0.1c0,0.1-0.1,0.2-0.1,0.3
		c-4,9.4-8,18.7-12.1,28.1c-0.5,1.2-0.3,1-1.6,1.1c-2,0-3.9,0-5.9,0c-0.3,0-0.5,0-0.8,0c-0.1,0-0.2-0.1-0.2-0.2
		c0.1-0.3,0.2-0.5,0.3-0.8c0.5-1.2,1.1-2.5,1.6-3.7c6.1-14.3,12.1-28.5,18.2-42.8c0.2-0.5,0.4-1,0.7-1.5c0,0,0.1-0.1,0.1-0.1
		c0,0,0.1,0,0.1,0.1c0,0.1,0.1,0.1,0.1,0.2c0.1,0.2,0.1,0.4,0.2,0.5c1.5,3.6,3.1,7.2,4.6,10.9c2.4,5.8,4.9,11.5,7.3,17.3
		c0.1,0.3,0.3,0.6,0.4,0.9c0.1,0.3,0,0.4-0.3,0.4c-0.2,0-0.5,0-0.7,0C72,102.4,71,102.4,70.1,102.4"/>
	<path fill="#332F31" d="M242.6,55.1c0,6.5,0,12.9,0,19.4c0,0.3,0,0.7,0,1c0,0.3-0.1,0.4-0.4,0.4c-0.1,0-0.2,0-0.3,0
		c-2.3,0-4.5,0-6.8,0c-0.1,0-0.2,0-0.3,0c-0.3,0-0.4-0.2-0.5-0.5c0-0.2,0-0.4,0-0.6c0-10,0-20,0-30c0-0.9-0.1-0.7,0.5-1.5
		c4.4-5.5,8.8-10.9,13.2-16.4c0.1-0.2,0.3-0.3,0.4-0.5c0.1-0.1,0.3-0.2,0.5-0.2c0.1,0,0.3,0,0.4,0c3.7,0,7.3,0,11,0
		c0.3,0,0.5,0,0.8,0c0.1,0,0.2,0.1,0.2,0.2c0,0.1,0,0.2,0,0.3c0,2.3,0,4.6,0,6.9c0,0.1,0,0.3,0,0.4c0,0.1-0.1,0.1-0.2,0.2
		c-0.2,0-0.3,0-0.5,0c-1.7,0-3.5,0-5.2,0c-3.9,0-7.9,0-11.8,0c-0.3,0-0.5,0-0.8,0c-0.1,0-0.3,0.2-0.3,0.3c0,0.1,0,0.2,0,0.3
		c0,0.3,0,0.5,0,0.8C242.6,42.2,242.6,48.6,242.6,55.1"/>
	<path fill="#332F31" d="M52,26.2c2.9,0,5.8,0,8.6,0c0.3,0,0.6,0,0.9,0c1.1,0,2.3,0.1,3.4,0.4c2.5,0.6,4.7,1.7,6.7,3.3
		c1.6,1.3,2.9,2.8,3.9,4.5c1,1.7,1.6,3.6,1.9,5.5c0.2,1.3,0.3,2.6,0.2,3.9c-0.2,1.9-0.6,3.7-1.4,5.5c-0.1,0.2-0.2,0.3-0.3,0.5
		c0,0.1-0.2,0.1-0.3,0.1c-0.2-0.1-0.4-0.2-0.5-0.4c-0.7-0.5-1.5-1-2.2-1.6c-1.1-0.8-2.2-1.6-3.3-2.4c-0.2-0.1-0.3-0.2-0.5-0.3
		c-0.1-0.1-0.2-0.3-0.2-0.4c0-0.2,0.1-0.4,0.1-0.6c0.7-2.6-0.2-5.9-2.5-7.9c-0.9-0.8-1.9-1.2-3-1.6c-0.7-0.2-1.4-0.3-2.2-0.3
		c-3.4,0-6.7,0-10.1,0c-3.2,0-6.3,0-9.5,0c-0.3,0-0.6,0-0.9,0c-0.3,0-0.4-0.1-0.4-0.4c0-0.3,0-0.5,0-0.8c0-2,0-4,0-6
		c0-0.1,0-0.2,0-0.3c0-0.7,0.1-0.8,0.8-0.8c0.8,0,1.6,0,2.4,0C46.4,26.2,49.2,26.2,52,26.2"/>
	<path fill="#332F31" d="M189.3,77.3c-2.7,0-5.3,0-8,0c-0.2,0-0.5,0-0.7,0c-0.4,0-0.5-0.2-0.3-0.5c0.2-0.6,0.5-1.2,0.8-1.8
		c0.7-1.7,1.4-3.4,2.2-5.1c0.1-0.2,0.1-0.3,0.2-0.4c0.1-0.3,0.3-0.4,0.6-0.4c0.3,0,0.5,0,0.8,0c3,0,6,0,8.9,0c0.3,0,0.5,0,0.8,0
		c0.1,0,0.3-0.2,0.2-0.3c-0.1-0.2-0.1-0.4-0.2-0.5c-0.4-0.9-0.8-1.8-1.1-2.7c-0.1-0.3-0.3-0.5-0.3-0.8c0,0,0-0.1,0.1-0.1
		c0.1,0,0.2-0.1,0.3-0.1c0.3,0,0.7,0,1,0c2,0,4,0,6-0.1c0.2,0,0.3,0,0.5,0c0.1,0,0.2,0.1,0.2,0.1c0.1,0.2,0.2,0.4,0.3,0.6
		c0.6,1.4,1.2,2.8,1.8,4.3c2,4.8,4,9.5,6.1,14.3c0.1,0.3,0.3,0.6,0.4,0.9c0,0.1,0.1,0.3,0.1,0.4c0,0.1-0.1,0.2-0.1,0.2
		c-0.2,0-0.4,0-0.6,0c-1,0-2,0-3,0c-1.2,0-2.4,0-3.6,0c-0.4,0-0.6-0.2-0.8-0.5c-0.6-1.4-1.3-2.9-1.9-4.3c-0.3-0.7-0.7-1.5-1-2.2
		c-0.1-0.1-0.1-0.3-0.2-0.4c-0.1-0.2-0.2-0.3-0.4-0.3c-0.2,0-0.5,0-0.7,0C194.7,77.3,192,77.3,189.3,77.3"/>
	<path fill="#332F31" d="M225.5,121c-1.5,0-2.7,0-3.8-0.2c-1.2-0.2-2.4-0.4-3.6-0.8c-0.1,0-0.2-0.1-0.3-0.1c-0.1,0-0.2-0.2-0.1-0.3
		c0.1-0.2,0.2-0.4,0.3-0.6c0.9-1.6,1.9-3.2,2.8-4.8c0.3-0.5,0.6-1,0.9-1.5c0.1-0.1,0.1-0.2,0.2-0.3c0.1-0.1,0.2-0.1,0.3-0.1
		c0.2,0,0.5,0,0.7,0.1c1.5,0.2,3,0.2,4.5,0c3.2-0.5,6.1-1.8,8.5-3.9c1.7-1.5,3.1-3.3,4.1-5.3c0.5-1,0.4-0.9,1.3-0.5
		c1.9,0.9,3.9,1.8,5.8,2.7c0.3,0.1,0.5,0.3,0.8,0.4c0.1,0,0.1,0.2,0.1,0.3c-0.1,0.2-0.2,0.4-0.3,0.7c-1.7,3.5-4.1,6.4-7.1,8.8
		c-2.6,2.1-5.5,3.6-8.8,4.5c-1.3,0.4-2.6,0.6-3.9,0.8C227.1,121,226.1,121,225.5,121"/>
	<path fill="#332F31" d="M100.6,69.2c3.8,0,7.5,0,11.3,0c0.4,0,0.8,0,1.2,0c0,0,0.1,0,0.1,0.1c0,0,0,0.1,0,0.1
		c0,0.1-0.1,0.1-0.2,0.2c-0.1,0.1-0.3,0.3-0.4,0.4c-5,4.5-10,8.9-15,13.4c-0.2,0.2-0.5,0.4-0.7,0.6c-0.1,0.1-0.1,0.1-0.2,0.1
		c-0.1,0.1-0.2,0-0.3-0.1c0-0.2,0-0.4,0-0.6c0-1.6,0-3.1,0-4.7c0-0.3,0-0.6,0-0.9c0-0.1-0.1-0.3-0.3-0.3c-0.3,0-0.5,0-0.8,0
		c-2,0-4,0-5.9,0c-0.4,0-0.7,0-1.1,0c-0.1,0-0.3,0-0.4-0.1c-0.1,0-0.1-0.1-0.2-0.2c0-0.1-0.1-0.2-0.1-0.3c0-0.3,0-0.5,0-0.8
		c0-1.9,0-3.8,0-5.7c0-0.1,0-0.2,0-0.3c0-0.9,0.1-0.9,0.9-0.9c1.6,0,3.3,0,4.9,0C95.8,69.2,98.2,69.2,100.6,69.2"/>
	<path fill="#332F31" d="M177,161.2c-0.1,0.1-0.1,0.2-0.2,0.2c-0.3,0.2-0.6,0.4-0.9,0.6c-0.3,0.2-0.5,0.4-0.8,0.5
		c-0.2,0.1-0.4,0.4-0.8,0.4c-0.2-0.2-0.3-0.4-0.5-0.6c-0.4-0.5-0.7-0.9-1.1-1.3c-3.2-2.9-7.9-1.9-10,1.6c-0.6,1-0.9,2-0.9,3.2
		c0,1.5,0.4,2.9,1.3,4.1c0.9,1.1,2,1.9,3.3,2.4c1.5,0.5,2.9,0.4,4.4-0.2c1.5-0.6,2.6-1.6,3.4-3.1c0.1-0.1,0.2-0.3,0.2-0.4
		c0,0,0.1-0.1,0.1-0.1c0,0,0.1,0,0.2,0c0.9,0.4,1.7,0.8,2.6,1.2c0.1,0,0.1,0.1,0.2,0.2c0,0.1-0.1,0.2-0.1,0.3
		c-1.3,2.5-3.2,4.3-5.9,5.2c-1.3,0.4-2.6,0.6-3.9,0.5c-3.4-0.2-7.4-2.5-8.8-7.2c-0.4-1.3-0.5-2.6-0.3-3.9c0.1-1.1,0.4-2.2,1-3.3
		c1.4-2.8,3.6-4.6,6.7-5.3c4-0.9,8.5,0.7,10.7,4.5C176.8,160.9,176.9,161,177,161.2"/>
	<path fill="#332F31" d="M86.3,166c0-3,0-5.9,0-8.9c0-0.3,0-0.5,0-0.8c0-0.1,0.1-0.2,0.2-0.2c0.2,0,0.3,0,0.5,0c2.6,0,5.2,0,7.7,0
		c2.1,0,4.6,1.3,5.8,3.6c0.5,1,0.7,2,0.6,3.1c-0.1,2.1-0.9,3.8-2.6,5.1c-0.5,0.4-1,0.7-1.6,0.9c-0.4,0.1-0.7,0.2-1.1,0.3
		c-0.3,0.1-0.5,0.1-0.8,0.1c-1.5,0-3,0-4.5,0c-0.2,0-0.5,0-0.7,0c-0.1,0-0.2,0.1-0.2,0.2c0,0.2,0,0.5,0,0.7c0,1.6,0,3.3,0,4.9
		c0,0.2,0,0.5,0,0.7c0,0.1-0.1,0.2-0.2,0.2c-0.4,0-0.7,0-1.1,0c-0.5,0-1.1,0-1.6,0c-0.2,0-0.3-0.1-0.3-0.4c0-0.2,0-0.5,0-0.7
		C86.3,171.9,86.3,169,86.3,166 M92.5,165.8L92.5,165.8c0.3,0,0.7,0,1,0c0.5,0,1,0,1.5,0c0.7,0,1.3-0.3,1.8-0.8
		c0.3-0.3,0.6-0.7,0.7-1.2c0.4-0.8,0.3-1.6,0-2.5c-0.5-1.2-1.5-1.9-2.8-1.9c-1.6-0.1-3.2,0-4.8,0c-0.1,0-0.2,0-0.2,0
		c-0.1,0-0.2,0.1-0.2,0.2c0,0.1,0,0.1,0,0.2c0,1.9,0,3.7,0,5.6c0,0.1,0,0.1,0,0.2c0,0.1,0.1,0.1,0.2,0.2c0.2,0,0.3,0,0.5,0
		C91,165.8,91.8,165.8,92.5,165.8"/>
	<path fill="#332F31" d="M130,156.3c0.1,0.1,0.1,0.1,0.2,0.2c0.1,0.1,0.1,0.3,0.2,0.4c2.6,6,5.1,12,7.7,18c0.1,0.2,0.2,0.5,0.3,0.8
		c0,0,0,0.1-0.1,0.1c0,0-0.1,0-0.2,0c-0.9,0-1.7,0-2.6,0c-0.2,0-0.4-0.1-0.4-0.3c-0.2-0.5-0.4-1-0.7-1.5c-0.2-0.4-0.3-0.7-0.5-1.1
		c-0.1-0.1-0.2-0.2-0.3-0.2c-0.1,0-0.3,0-0.4,0c-2.1,0-4.2,0-6.3,0c-0.7,0-0.6,0-0.9,0.6c-0.3,0.7-0.7,1.5-1,2.2
		c-0.1,0.2-0.2,0.3-0.4,0.3c-0.9,0-1.8,0-2.7,0c-0.1,0-0.1-0.1-0.1-0.2c0-0.1,0-0.2,0.1-0.2c0.1-0.2,0.1-0.3,0.2-0.5
		c2.5-6,5.1-12,7.6-18C129.8,156.8,129.8,156.5,130,156.3 M130,169.5L130,169.5c0.6,0,1.2,0,1.9,0c0.1,0,0.2,0,0.3-0.1
		c0,0,0.1-0.1,0.1-0.1c0-0.1,0-0.2-0.1-0.3c-0.6-1.5-1.3-3-1.9-4.6c0-0.1-0.1-0.1-0.1-0.2c0-0.1-0.2-0.1-0.2,0
		c0,0.1-0.1,0.1-0.1,0.2c-0.6,1.5-1.3,3-1.9,4.6c0,0.1,0,0.2-0.1,0.2c0,0.1,0.1,0.2,0.2,0.2c0.2,0,0.3,0,0.5,0
		C129,169.5,129.5,169.5,130,169.5"/>
	<path fill="#332F31" d="M206.6,155.8c2.6,0,5.2,0,7.8,0c0.2,0,0.5,0,0.7,0c0.3,0,0.4,0,0.4,0.4c0,0.8,0,1.6,0,2.4
		c0,0.1,0,0.1,0,0.2c0,0.1-0.1,0.3-0.3,0.3c-0.2,0-0.5,0-0.7,0c-1.9,0-3.7,0-5.6,0c-0.2,0-0.5,0-0.7,0c-0.1,0-0.2,0.1-0.2,0.2
		c0,0.3,0,0.5,0,0.8c0,3,0,6.1,0,9.1c0,1.8,0,3.7,0,5.5c0,0.2,0,0.5,0,0.7c0,0.1-0.1,0.2-0.2,0.2c0,0-0.1,0-0.1,0
		c-0.9,0-1.8,0-2.7,0c-0.2,0-0.3-0.1-0.3-0.2c0-0.3,0-0.6,0-0.9c0-4.8,0-9.5,0-14.3c0-0.3,0-0.6,0-0.9c0-0.1-0.1-0.2-0.2-0.2
		c-0.2,0-0.5,0-0.7,0c-1.7,0-3.5,0-5.2,0c-0.2,0-0.5,0-0.7,0c-0.1,0-0.2-0.1-0.2-0.2c0-0.9,0-1.8,0-2.8c0-0.2,0.1-0.3,0.3-0.3
		c0.3,0,0.5,0,0.8,0C201.2,155.8,203.9,155.8,206.6,155.8"/>
	<path fill="#332F31" d="M222.6,34.4c-1.7,0-3.3,0-5,0c-0.2,0-0.4,0-0.7,0c-0.3,0-0.4-0.1-0.5-0.4c0-0.3,0-0.5,0-0.8
		c0-2,0-3.9,0-5.9c0-0.3,0-0.6,0.1-0.9c0-0.1,0.1-0.2,0.2-0.2c0.1,0,0.3,0,0.4,0c0.5,0,1,0,1.5,0c3,0,6,0,8.9,0c0.3,0,0.6,0,0.9,0
		c0.2,0,0.3,0.1,0.3,0.3c0,0.2,0,0.4,0,0.6c0,2.1,0,4.2,0,6.3c0,0.2,0,0.4,0,0.6c0,0.1-0.1,0.2-0.2,0.2c-0.1,0-0.2,0-0.3,0
		c-0.3,0-0.6,0-0.9,0C225.7,34.4,224.1,34.4,222.6,34.4"/>
	<path fill="#332F31" d="M249.1,85.7c0,0.1,0,0.1-0.1,0.1c-0.2,0.1-0.3,0.3-0.5,0.4c-0.6,0.5-1.3,0.9-1.9,1.4
		c-1.2,0.8-2.4,1.6-3.6,2.4c-0.1,0.1-0.2,0.1-0.3,0.2c-0.2,0.1-0.4,0.1-0.5-0.1c-0.1-0.1-0.2-0.3-0.3-0.4c-0.5-0.7-1-1.4-1.5-2
		c-0.1-0.1-0.2-0.3-0.3-0.5c-0.1-0.1-0.1-0.2,0-0.3c0-0.1,0.1-0.2,0.1-0.2c1.3-2.3,2.7-4.5,4-6.8c0-0.1,0.1-0.1,0.1-0.2
		c0.1-0.1,0.2-0.1,0.3,0c0.1,0.1,0.2,0.1,0.3,0.2c0.2,0.2,0.4,0.4,0.6,0.6c1.3,1.4,2.5,3,3.4,4.6c0.1,0.1,0.1,0.2,0.2,0.4
		C249,85.5,249,85.6,249.1,85.7"/>
</g>
</svg>
